<?xml version="1.0" ?><!DOCTYPE svg  PUBLIC '-//W3C//DTD SVG 1.1//EN'  'http://www.w3.org/Graphics/SVG/1.1/DTD/svg11.dtd'><svg enable-background="new 0 0 64 64" height="64px" id="Layer_1" version="1.1" viewBox="0 0 64 64" width="64px" xml:space="preserve" xmlns="http://www.w3.org/2000/svg" xmlns:xlink="http://www.w3.org/1999/xlink"><g><path d="M50.219,0.163H13.782c-2.459,0-4.454,2.138-4.454,4.775v16.559h45.343V4.938   C54.672,2.301,52.678,0.163,50.219,0.163z M19.936,14.043c0,0.771-0.691,1.395-1.545,1.395c-0.853,0-1.544-0.624-1.544-1.395V7.784   c0-0.771,0.691-1.395,1.544-1.395c0.854,0,1.545,0.624,1.545,1.395V14.043z" fill="#241F20"/><path d="M9.329,59.727c0,2.271,1.995,4.111,4.454,4.111h36.438c2.457,0,4.451-1.84,4.451-4.111V24.593H9.329V59.727   z M16.847,34.061c0-1.02,0.691-1.847,1.544-1.847c0.854,0,1.545,0.827,1.545,1.847v8.287c0,1.02-0.691,1.846-1.545,1.846   c-0.853,0-1.544-0.826-1.544-1.846V34.061z" fill="#241F20"/></g></svg>