<?xml version="1.0" encoding="iso-8859-1"?>
<!-- Generator: Adobe Illustrator 16.0.0, SVG Export Plug-In . SVG Version: 6.00 Build 0)  -->
<!DOCTYPE svg PUBLIC "-//W3C//DTD SVG 1.1//EN" "http://www.w3.org/Graphics/SVG/1.1/DTD/svg11.dtd">
<svg version="1.1" id="Capa_1" xmlns="http://www.w3.org/2000/svg" xmlns:xlink="http://www.w3.org/1999/xlink" x="0px" y="0px"
	 width="612.001px" height="612px" viewBox="0 0 612.001 612" style="enable-background:new 0 0 612.001 612;" xml:space="preserve"
	>
<g>
	<g>
		<path d="M543.729,474.29c-23.31,2.945-46.052,5.816-69.686,8.799c-1.233,16.857-4.175,35.137,16.447,45.525
			c12.135,0,24.267,0,36.403,0C544.922,517.973,550.701,497.133,543.729,474.29z"/>
		<path d="M571.123,225.376c-26.125-7.21-52.005,4.886-64.117,30.501c-9.574,20.261-18.565,40.795-28.058,61.726
			c-115.685-34.808-230.4-33.641-346.24,0.186c-9.225-20.805-17.964-40.238-26.478-59.775
			c-10.458-24.021-32.782-37.237-58.187-34.22c-23.375,2.775-43.435,22.076-47.283,45.508c-4.008,24.376,8.013,47.718,31.386,58.396
			c7.094,3.236,9.098,7.244,9.759,14.43c2.067,22.471,5.135,44.846,7.529,67.293c2.042,19.197,12.295,32.939,29.96,38.916
			c14.271,4.834,29.8,8.266,44.794,8.354c121.282,0.648,242.567,0.375,363.855,0.32c6.053-0.006,12.159-0.201,18.146-0.994
			c34.229-4.523,53.138-20.129,56.457-46.688c2.756-21.998,5.556-43.994,7.503-66.07c0.711-8.076,3.015-12.551,10.999-16.178
			c21.752-9.875,33.084-31.772,30.485-55.457C609.231,249.74,593.252,231.496,571.123,225.376z"/>
		<path d="M520.087,90.18c-14.809-4.562-61.513-6.264-76.988-6.38c-40.521-0.299-88.38-0.387-137.062-0.412
			c-48.683,0.025-96.541,0.113-137.062,0.412c-15.476,0.117-62.18,1.818-76.988,6.38c-43.469,13.374-46.024,63.29-42.573,107.467
			c56.884-1.296,80.578,37.011,96.632,83.733c53.704-10.062,106.866-14.972,159.991-14.84c53.122-0.132,106.284,4.779,159.988,14.84
			c16.055-46.723,39.751-85.026,96.632-83.733C566.111,153.47,563.557,103.554,520.087,90.18z"/>
		<path d="M69.183,474.094c23.31,2.945,46.052,5.816,69.686,8.799c1.233,16.857,4.175,35.137-16.448,45.525
			c-12.135,0-24.266,0-36.404,0C67.99,517.778,62.214,496.938,69.183,474.094z"/>
	</g>
</g>
<g>
</g>
<g>
</g>
<g>
</g>
<g>
</g>
<g>
</g>
<g>
</g>
<g>
</g>
<g>
</g>
<g>
</g>
<g>
</g>
<g>
</g>
<g>
</g>
<g>
</g>
<g>
</g>
<g>
</g>
</svg>
